<svg width="247" height="233" viewBox="0 0 247 233" fill="none" xmlns="http://www.w3.org/2000/svg">
<g filter="url(#filter0_i_79_99)">
<g filter="url(#filter1_i_79_99)">
<path d="M126 13C164.659 13 196 40.6243 196 71C196 71.5287 195.989 72.0548 195.97 72.5781C216.772 82.1405 230 99.7985 230 120C230 149.82 202.623 172.65 163.216 173.476C158.419 180.347 152.071 186.126 144.656 190.345C146.107 197.7 149.485 204.887 150.693 209.547C142.908 211.752 141.344 207.56 129.819 201.818C128.237 200.237 126.771 198.683 125.483 197.165C122.24 197.713 118.905 198 115.5 198C91.6083 198 71.1211 183.936 62.438 163.917C33.1463 158.928 16.9995 137.549 16.9995 111.021C16.9995 84.7395 31.3487 64.6359 59.7192 59.6934C64.357 33.2591 90.9333 13 126 13Z" fill="url(#paint0_linear_79_99)"/>
</g>
<g filter="url(#filter2_di_79_99)">
<path d="M113.28 0.771973C121.848 -0.299229 127.017 -0.211497 135.453 0.76416C143.095 1.64794 147.577 2.65734 154.855 5.07471C160.75 7.03259 164.363 8.41422 170.069 11.6108C172.843 13.1645 176 15.3736 178.32 17.0698C179.512 17.9414 180.547 18.7246 181.284 19.2905C181.654 19.574 181.951 19.8047 182.158 19.9663C182.261 20.0469 182.343 20.1112 182.399 20.1558C182.415 20.1679 182.429 20.1787 182.44 20.188C182.45 20.1954 182.461 20.2036 182.473 20.2124C182.534 20.2588 182.62 20.3242 182.729 20.4077C182.945 20.5749 183.252 20.8147 183.63 21.1128C184.383 21.7079 185.426 22.547 186.589 23.5298C188.826 25.421 191.842 28.1193 194.023 30.7329C197.777 35.2309 199.452 38.3351 201.866 43.0015C204.686 48.4514 206.392 52.0905 207.954 58.5806C208.576 61.1662 208.981 64.2976 209.231 66.6538C211.434 67.514 214.43 68.7871 216.817 70.2563C220.334 72.4207 222.225 74.0652 224.94 76.6147C230.498 81.8322 233.449 85.7061 236.902 92.5737C239.599 97.9376 241.161 101.725 242.08 108.241C242.757 113.039 242.756 115.92 242.646 120.389C242.521 125.506 242.62 129.524 240.881 135.634C239.112 141.849 236.977 145.243 234.105 149.895C230.836 155.192 228.499 158.171 224.151 162.614C216.838 170.087 211.436 173.719 202.103 178.064C191.317 183.085 184.082 184.506 172.573 185.206C167.592 185.508 161.552 184.999 156.976 184.47C156.993 184.6 157.008 184.719 157.021 184.821C157.037 184.934 157.049 185.027 157.059 185.094C157.243 186.107 157.39 186.912 157.536 187.716C157.67 188.452 157.803 189.188 157.966 190.083C158.206 190.884 158.405 191.545 158.604 192.207L159.354 194.707C159.637 195.651 160.129 197.249 160.557 198.633C160.769 199.321 160.963 199.948 161.104 200.403C161.175 200.63 161.232 200.815 161.271 200.942C161.275 200.953 161.278 200.965 161.281 200.975C161.646 201.978 161.937 202.777 162.228 203.576C162.491 204.3 162.754 205.024 163.072 205.901C163.763 206.825 164.326 208.447 165.074 210.708C165.298 211.292 165.519 211.884 165.701 212.379C165.855 212.798 165.99 213.166 166.085 213.43C166.133 213.562 166.171 213.669 166.197 213.743C166.211 213.78 166.221 213.809 166.229 213.83C166.232 213.839 166.235 213.848 166.237 213.853C166.238 213.856 166.239 213.858 166.239 213.86L166.24 213.862V213.863L168.197 219.337C168.449 219.944 168.716 220.569 169 221.21C168.999 226.008 158.441 224.975 155.5 224.756C154.401 224.756 151.904 224.435 149.287 223.753C149.171 223.739 149.096 223.729 149.085 223.727C148.981 223.711 148.887 223.695 148.832 223.685C148.716 223.665 148.559 223.635 148.374 223.601C145.974 223.157 144.237 222.783 141.57 221.726C140.226 221.193 138.691 220.493 137.569 219.966C136.992 219.695 136.491 219.454 136.133 219.28C135.953 219.193 135.808 219.122 135.707 219.073C135.657 219.048 135.617 219.028 135.589 219.014L135.542 218.991H135.541L138.649 212.718L135.54 218.99L135.454 218.947L138.649 212.718L135.453 218.947V218.946H135.452C135.451 218.945 135.45 218.944 135.449 218.944C135.447 218.943 135.444 218.942 135.44 218.94C135.433 218.936 135.423 218.931 135.41 218.924C135.385 218.911 135.349 218.893 135.305 218.87C135.215 218.823 135.087 218.757 134.93 218.674C134.616 218.51 134.179 218.28 133.688 218.015C132.749 217.509 131.444 216.789 130.414 216.139C129.229 215.392 128.005 214.465 127.173 213.813C126.736 213.47 126.361 213.167 126.093 212.948C125.959 212.838 125.849 212.748 125.771 212.683C125.733 212.651 125.701 212.624 125.679 212.605C125.668 212.596 125.658 212.587 125.651 212.582C125.648 212.579 125.644 212.577 125.642 212.575L125.637 212.57L125.409 212.378L125.205 212.174C125.206 212.175 125.208 212.176 125.208 212.176C125.207 212.176 125.205 212.174 125.203 212.172C125.196 212.165 125.181 212.149 125.158 212.127C125.112 212.083 125.038 212.011 124.942 211.921C124.746 211.737 124.479 211.494 124.189 211.25C123.989 211.08 123.807 210.937 123.656 210.824C123.637 210.823 123.615 210.822 123.592 210.821C123.487 210.815 123.308 210.806 123.131 210.795C122.742 210.771 122.247 210.732 121.659 210.648C121.789 210.666 121.656 210.644 121.103 210.635C120.64 210.628 120.087 210.632 119.528 210.643C118.977 210.654 118.459 210.672 118.077 210.686C117.887 210.693 117.733 210.699 117.629 210.704C117.577 210.706 117.537 210.707 117.512 210.708C117.509 210.709 117.507 210.708 117.505 210.708L117.503 210.709C117.501 210.71 117.5 210.709 117.498 210.709C117.492 210.71 117.488 210.71 117.484 210.71C117.482 210.711 117.479 210.71 117.479 210.71L117.478 210.709C117.467 210.71 117.454 210.712 117.439 210.712C117.399 210.714 117.341 210.717 117.269 210.72C117.123 210.727 116.916 210.737 116.661 210.747C116.152 210.766 115.441 210.79 114.631 210.806C113.077 210.837 110.91 210.844 109.081 210.695C106.976 210.524 104.52 210.081 102.767 209.73C101.852 209.547 101.052 209.373 100.479 209.246C100.193 209.182 99.9603 209.129 99.7969 209.091C99.7378 209.078 99.6871 209.066 99.6465 209.056C99.6172 209.05 99.5836 209.044 99.5469 209.037C99.3912 209.005 99.1696 208.96 98.8965 208.903C98.3513 208.789 97.5913 208.626 96.7285 208.428C95.0677 208.048 92.7818 207.484 90.9053 206.849C87.2712 205.619 85.1452 204.666 81.8311 202.882C78.5969 201.141 76.7866 199.914 73.9902 197.849C71.7189 196.172 69.4752 194.771 66.6426 192.041C63.9509 189.446 62.4916 187.584 60.4922 184.842C59.2921 183.196 58.5069 181.803 57.8418 180.533C57.1507 179.212 56.7792 178.417 56.0879 177.22C55.5057 176.213 54.9106 175.06 54.3994 174.031C53.5693 173.876 52.6854 173.697 51.917 173.5C50.5321 173.147 49.5616 172.968 48.123 172.653C46.7333 172.349 45.2102 171.976 43.3516 171.331C41.274 170.609 38.985 169.479 37.4102 168.657C36.5797 168.223 35.8589 167.828 35.3438 167.541C35.0854 167.396 34.8754 167.278 34.7275 167.194C34.6538 167.152 34.5949 167.118 34.5527 167.093C34.5318 167.081 34.5146 167.071 34.502 167.064C34.4958 167.06 34.4904 167.057 34.4863 167.054C34.4846 167.053 34.4828 167.052 34.4814 167.051L34.4785 167.05V167.049L38.001 161L34.4775 167.049L34.3516 166.976L34.2295 166.898L38.001 161L34.2285 166.898V166.897L34.2227 166.894C34.2197 166.892 34.2157 166.889 34.2109 166.886C34.2007 166.88 34.1861 166.87 34.168 166.858C34.1314 166.834 34.0788 166.801 34.0127 166.758C33.8804 166.673 33.6912 166.55 33.458 166.398C32.9919 166.093 32.3425 165.665 31.6094 165.169C30.1868 164.209 28.2829 162.886 26.7852 161.692C23.4371 159.023 21.7428 157.038 19.3711 154.317C17.0563 151.661 15.8106 149.994 13.8789 147.181C12.2803 144.853 10.9169 143.024 9.34277 139.758C8.2855 137.565 7.40786 134.872 6.83984 132.975C6.5408 131.977 6.29722 131.094 6.12793 130.459C6.04306 130.141 5.97551 129.882 5.92871 129.699C5.90541 129.607 5.88711 129.534 5.87402 129.482C5.86751 129.456 5.86227 129.434 5.8584 129.418C5.85653 129.411 5.85475 129.404 5.85352 129.399C5.85299 129.397 5.85202 129.395 5.85156 129.393V129.389L12.6484 127.718L5.85059 129.388L5.80957 129.218L5.77637 129.046L12.6484 127.718L5.77539 129.045V129.043C5.77513 129.042 5.7748 129.04 5.77441 129.038C5.77355 129.033 5.77194 129.026 5.77051 129.019C5.76761 129.004 5.76387 128.982 5.75879 128.956C5.74854 128.902 5.73412 128.825 5.71582 128.727C5.67911 128.531 5.62623 128.251 5.56348 127.904C5.43818 127.211 5.26875 126.242 5.08984 125.137C4.74199 122.988 4.32167 120.09 4.16406 117.673C3.91051 113.785 3.98587 111.504 4.15625 107.888C4.33483 104.098 4.36957 101.286 5.29297 96.8052C6.18557 92.4737 7.045 89.9331 8.69629 86.0054C10.3401 82.0956 11.5855 79.8931 13.7217 76.4937C14.862 74.679 16.3951 72.5988 17.5518 71.0776C18.1477 70.2939 18.6792 69.6121 19.0625 69.1255C19.2545 68.8818 19.4102 68.6854 19.5195 68.5483C19.5742 68.4798 19.6181 68.426 19.6484 68.3882C19.6633 68.3697 19.6751 68.3548 19.6836 68.3442C19.6878 68.339 19.6917 68.3338 19.6943 68.3306C19.6955 68.3292 19.6965 68.3277 19.6973 68.3267L19.6992 68.3247L19.7549 68.2554L19.8125 68.188L19.8154 68.1851L19.835 68.1616C19.8468 68.1477 19.8627 68.1285 19.8828 68.105C19.9235 68.0575 19.9813 67.9905 20.0537 67.9067C20.1986 67.7391 20.4054 67.5019 20.6621 67.2114C21.1743 66.6319 21.8949 65.8304 22.7354 64.936C24.3439 63.2243 26.6597 60.8821 28.875 59.1743C33.2824 55.7767 36.3719 54.3676 40.7139 52.3628C43.136 51.2444 46.1727 50.1484 48.4463 49.3735C48.5976 49.322 48.7472 49.2725 48.8936 49.2231C48.9225 49.1249 48.9505 49.0247 48.9805 48.9243C49.6383 46.7191 50.645 43.6344 51.8564 41.1499C53.9102 36.9379 55.6344 34.6753 58.0879 31.4663C61.6465 26.8119 64.1012 24.1793 68.6445 20.3599C70.4943 18.8049 72.8721 17.1363 74.6455 15.938C75.5609 15.3195 76.3723 14.7872 76.9561 14.4097C77.2485 14.2205 77.4861 14.0692 77.6523 13.9634C77.7355 13.9105 77.8015 13.8685 77.8477 13.8394C77.8704 13.825 77.8884 13.8134 77.9014 13.8052C77.9032 13.804 77.9046 13.8023 77.9062 13.8013C77.9133 13.7967 77.9217 13.7928 77.9297 13.7876C77.9872 13.7505 78.0693 13.6973 78.1738 13.6304C78.3833 13.4962 78.6838 13.3053 79.0566 13.0708C79.801 12.6028 80.8436 11.9565 82.043 11.2407C84.3728 9.85033 87.5488 8.04268 90.3145 6.81787C98.8784 3.02524 104.429 1.87875 113.28 0.771973ZM133.845 14.6714C126.375 13.8075 122.338 13.7483 115.018 14.6636C107.045 15.6604 102.922 16.5457 95.9834 19.6187C94.0322 20.4827 91.4577 21.9249 89.2168 23.2622C88.131 23.9102 87.1836 24.4981 86.5088 24.9224C86.1721 25.1341 85.9045 25.3042 85.7246 25.4194C85.6349 25.4769 85.5665 25.5209 85.5225 25.5493C85.5007 25.5634 85.4843 25.5733 85.4746 25.5796C85.4699 25.5827 85.4665 25.5853 85.4648 25.5864L85.4189 25.6167L85.3643 25.6509C85.3568 25.6556 85.3446 25.663 85.3281 25.6733C85.2938 25.695 85.2401 25.7292 85.1699 25.7739C85.0293 25.8634 84.8208 25.9966 84.5596 26.1655C84.0356 26.5044 83.305 26.9831 82.4844 27.5376C80.7855 28.6856 78.9135 30.0173 77.6533 31.0767C73.9506 34.1895 72.1947 36.0665 69.21 39.9702C66.8608 43.0427 65.8522 44.3904 64.4404 47.2856C63.7576 48.6862 63.015 50.853 62.3965 52.9263C62.1028 53.9106 61.8623 54.787 61.6963 55.4146C61.6137 55.7267 61.5496 55.9746 61.5078 56.1401C61.487 56.2225 61.4715 56.2848 61.4619 56.3237C61.4572 56.3429 61.454 56.3571 61.4521 56.3647C61.4517 56.3662 61.4504 56.3677 61.4502 56.3687L61.4512 56.3696L60.5088 60.2524L56.6865 61.4155H56.6855L56.627 61.4331C56.5824 61.4468 56.5141 61.4685 56.4238 61.4966C56.2429 61.5528 55.9746 61.6366 55.6387 61.7437C54.9653 61.9582 54.0246 62.2636 52.9629 62.6255C50.774 63.3715 48.3106 64.276 46.583 65.0737C42.3499 67.0283 40.4959 67.8933 37.4229 70.2622C36.139 71.2519 34.454 72.9092 32.9375 74.5229C32.2157 75.2911 31.5924 75.984 31.1514 76.4829C30.9317 76.7314 30.7594 76.9301 30.6445 77.063C30.6016 77.1126 30.5661 77.1527 30.54 77.1831C30.5195 77.2087 30.4944 77.2415 30.4639 77.2798C30.3706 77.3967 30.2321 77.5706 30.0596 77.7896C29.7137 78.2286 29.2324 78.8459 28.6953 79.5522C27.5852 81.0121 26.3673 82.6824 25.5752 83.9429C23.7149 86.9032 22.869 88.4165 21.6016 91.4312C20.2374 94.676 19.6827 96.3421 19.0049 99.6313C18.3443 102.837 18.3315 104.497 18.1406 108.547C17.9802 111.952 17.9299 113.636 18.1338 116.762C18.2458 118.479 18.5754 120.832 18.9102 122.9C19.0724 123.902 19.2271 124.784 19.3408 125.414C19.3976 125.728 19.444 125.978 19.4756 126.146C19.4799 126.169 19.4835 126.191 19.4873 126.211C19.4894 126.22 19.4919 126.228 19.4941 126.237C19.5297 126.376 19.5838 126.586 19.6543 126.85C19.7961 127.382 20.0012 128.125 20.251 128.958C20.7807 130.727 21.4027 132.534 21.9541 133.678C22.9684 135.782 23.643 136.67 25.4189 139.255C27.1129 141.722 28.033 142.947 29.9258 145.119C32.2709 147.81 33.2468 148.938 35.5127 150.745C36.5559 151.576 38.0777 152.644 39.4453 153.568C40.1073 154.015 40.6958 154.403 41.1172 154.678C41.3273 154.816 41.4952 154.924 41.6084 154.998C41.6229 155.007 41.6368 155.016 41.6494 155.024C41.6569 155.028 41.6648 155.033 41.6729 155.038C41.784 155.101 41.9526 155.197 42.166 155.316C42.5949 155.555 43.1986 155.885 43.8877 156.245C45.3527 157.009 46.8875 157.738 47.9453 158.106C49.0889 158.503 50.0268 158.738 51.1162 158.976C52.157 159.204 53.6862 159.503 55.3809 159.936C56.0542 160.108 57.173 160.317 58.2842 160.501C58.8058 160.588 59.2727 160.66 59.6084 160.71C59.7754 160.736 59.9087 160.755 59.998 160.768C60.0425 160.775 60.0764 160.78 60.0977 160.783C60.1079 160.784 60.1157 160.785 60.1201 160.786C60.1222 160.786 60.1245 160.787 60.125 160.787H60.124L63.9482 161.324L65.5322 164.846V164.845C65.5326 164.846 65.5333 164.848 65.5342 164.85C65.5363 164.855 65.5401 164.863 65.5449 164.874C65.5551 164.896 65.5716 164.931 65.5928 164.978C65.6355 165.072 65.6988 165.212 65.7803 165.388C65.944 165.742 66.1769 166.239 66.4482 166.803C67.0104 167.972 67.6681 169.279 68.21 170.216C69.0933 171.745 69.794 173.178 70.2451 174.04C70.7224 174.951 71.15 175.696 71.8047 176.594C73.5504 178.988 74.473 180.143 76.3584 181.96C78.3136 183.845 79.2284 184.314 82.3066 186.587C84.7386 188.383 85.9779 189.215 88.4668 190.554C91.1577 192.003 92.5666 192.631 95.3926 193.587C96.5662 193.985 98.2802 194.421 99.8564 194.782C100.612 194.955 101.281 195.099 101.759 195.199C101.997 195.248 102.187 195.287 102.313 195.313C102.377 195.326 102.425 195.335 102.455 195.341C102.47 195.344 102.481 195.346 102.487 195.347C102.49 195.348 102.492 195.348 102.493 195.348H102.492L102.634 195.375L102.772 195.409C102.773 195.409 102.775 195.41 102.777 195.411C102.784 195.412 102.795 195.415 102.811 195.418C102.842 195.426 102.891 195.437 102.956 195.452C103.087 195.482 103.282 195.527 103.529 195.583C104.025 195.693 104.721 195.844 105.511 196.001C107.167 196.333 108.962 196.64 110.217 196.742C111.307 196.83 112.889 196.837 114.355 196.808C115.055 196.794 115.673 196.775 116.114 196.757C116.334 196.749 116.508 196.74 116.624 196.735C116.682 196.732 116.725 196.73 116.753 196.729C116.766 196.728 116.777 196.728 116.782 196.728C116.784 196.728 116.786 196.727 116.787 196.727H116.803L116.818 196.726L117.144 203.625L116.819 196.726H116.825C116.828 196.726 116.832 196.725 116.837 196.725C116.847 196.725 116.862 196.724 116.88 196.723C116.916 196.722 116.966 196.719 117.029 196.716C117.156 196.711 117.336 196.704 117.555 196.696C117.99 196.68 118.591 196.659 119.244 196.646C120.289 196.625 122.279 196.594 123.639 196.789C123.734 196.802 123.831 196.812 123.992 196.822C124.089 196.828 124.175 196.832 124.33 196.84C124.467 196.848 124.657 196.857 124.863 196.873C125.85 196.945 126.968 197.113 128.362 197.578C129.665 198.012 130.74 198.697 131.359 199.121C132.07 199.607 132.722 200.13 133.233 200.562C133.756 201.004 134.208 201.418 134.527 201.718C134.64 201.825 134.739 201.92 134.821 202C134.861 202.033 134.909 202.071 134.962 202.115C135.17 202.285 135.465 202.524 135.808 202.792C136.537 203.364 137.313 203.938 137.884 204.297C138.48 204.674 139.426 205.203 140.33 205.691C140.76 205.922 141.143 206.125 141.419 206.269C141.556 206.341 141.667 206.398 141.74 206.436C141.755 206.444 141.769 206.451 141.781 206.458L141.877 206.505C141.961 206.547 142.086 206.607 142.244 206.684C142.562 206.838 143.009 207.053 143.522 207.294C144.582 207.792 145.798 208.342 146.728 208.71C147.786 209.13 148.47 209.337 149.505 209.557C149.354 209.143 149.212 208.751 149.07 208.361L148.07 205.611L148.014 205.455L147.965 205.297L154.648 203.218L147.965 205.296H147.964V205.293C147.963 205.291 147.961 205.288 147.96 205.284C147.957 205.275 147.953 205.261 147.948 205.245C147.938 205.211 147.922 205.16 147.902 205.096C147.862 204.967 147.805 204.78 147.733 204.551C147.591 204.093 147.395 203.461 147.181 202.767C146.755 201.39 146.247 199.738 145.944 198.73L144.444 193.73L144.332 193.355L144.262 192.97L143.262 187.47L143.238 187.344L143.221 187.216L143.22 187.215V187.211C143.219 187.209 143.219 187.206 143.219 187.203C143.218 187.195 143.216 187.185 143.214 187.173C143.21 187.149 143.205 187.114 143.199 187.071C143.187 186.984 143.17 186.859 143.149 186.707C143.108 186.401 143.051 185.975 142.991 185.489C142.876 184.557 142.728 183.251 142.661 182.137C142.582 180.823 142.586 179.271 142.603 178.164C142.611 177.585 142.623 177.078 142.634 176.714C142.639 176.532 142.644 176.384 142.647 176.28C142.649 176.228 142.651 176.187 142.652 176.158C142.653 176.143 142.653 176.131 142.653 176.123V176.108L142.654 176.107V176.106L142.96 168.108L150.847 169.477H150.849C150.853 169.478 150.86 169.479 150.87 169.481C150.891 169.485 150.925 169.49 150.97 169.498C151.061 169.513 151.2 169.537 151.383 169.567C151.75 169.627 152.292 169.713 152.972 169.816C154.335 170.022 156.243 170.291 158.41 170.543C162.862 171.063 167.975 171.459 171.725 171.231C181.867 170.615 187.316 169.505 196.194 165.372C204.147 161.669 208.122 158.977 214.146 152.822C217.775 149.113 219.471 146.95 222.192 142.542C225.009 137.979 226.22 136.002 227.416 131.801C228.581 127.708 228.516 125.535 228.65 120.047C228.751 115.92 228.741 113.904 228.218 110.196C227.585 105.707 226.69 103.428 224.395 98.8628C221.708 93.5193 219.765 90.9594 215.357 86.8218C213.004 84.6123 211.884 83.6592 209.479 82.1792C208.152 81.3621 206.025 80.4239 203.946 79.6187C202.963 79.238 202.085 78.9227 201.455 78.7036C201.142 78.5945 200.892 78.51 200.727 78.4546C200.644 78.427 200.582 78.4067 200.543 78.394C200.524 78.3878 200.51 78.3837 200.503 78.3813C200.5 78.3803 200.497 78.3796 200.496 78.3794H200.497L195.958 76.9146L195.662 72.1519C195.662 72.1504 195.662 72.1475 195.662 72.144C195.662 72.1347 195.66 72.1182 195.658 72.0962C195.655 72.052 195.651 71.9826 195.645 71.8911C195.632 71.7076 195.612 71.434 195.585 71.0903C195.531 70.4009 195.448 69.4366 195.334 68.3462C195.097 66.0778 194.759 63.585 194.343 61.856C193.156 56.9241 192.01 54.4183 189.432 49.4341C187.167 45.0561 186.045 43.0235 183.274 39.7036C181.913 38.072 179.678 36.0195 177.552 34.2222C176.533 33.3609 175.614 32.6209 174.952 32.0981C174.622 31.8376 174.358 31.6334 174.181 31.4966C174.092 31.4284 174.025 31.3768 173.982 31.3442C173.961 31.3282 173.946 31.3159 173.938 31.3091C173.934 31.3067 173.931 31.3053 173.93 31.3042L173.866 31.2554L173.804 31.2065L173.803 31.2056C173.801 31.2042 173.798 31.2014 173.793 31.1978C173.783 31.19 173.767 31.1769 173.745 31.1597C173.701 31.125 173.633 31.0714 173.543 31.0015C173.364 30.8614 173.097 30.6553 172.762 30.3979C172.089 29.8818 171.143 29.1655 170.058 28.3716C167.821 26.7363 165.227 24.9456 163.228 23.8257C158.556 21.2087 155.837 20.1527 150.442 18.3608C144.053 16.2387 140.509 15.4422 133.845 14.6714Z" fill="url(#paint1_linear_79_99)"/>
</g>
<g filter="url(#filter3_d_79_99)">
<rect x="84" y="83" width="12" height="37" rx="6" fill="url(#paint2_linear_79_99)"/>
</g>
<g filter="url(#filter4_d_79_99)">
<rect x="151" y="83" width="12" height="37" rx="6" fill="url(#paint3_linear_79_99)"/>
</g>
<g filter="url(#filter5_d_79_99)">
<path d="M108 119C121.2 121.8 135.167 120.167 140.5 119" stroke="url(#paint4_linear_79_99)" stroke-width="11" stroke-linecap="round"/>
</g>
</g>
<defs>
<filter id="filter0_i_79_99" x="4" y="-23" width="238.7" height="248" filterUnits="userSpaceOnUse" color-interpolation-filters="sRGB">
<feFlood flood-opacity="0" result="BackgroundImageFix"/>
<feBlend mode="normal" in="SourceGraphic" in2="BackgroundImageFix" result="shape"/>
<feColorMatrix in="SourceAlpha" type="matrix" values="0 0 0 0 0 0 0 0 0 0 0 0 0 0 0 0 0 0 127 0" result="hardAlpha"/>
<feOffset dy="-23"/>
<feGaussianBlur stdDeviation="25.3"/>
<feComposite in2="hardAlpha" operator="arithmetic" k2="-1" k3="1"/>
<feColorMatrix type="matrix" values="0 0 0 0 0 0 0 0 0 0 0 0 0 0 0 0 0 0 0.25 0"/>
<feBlend mode="normal" in2="shape" result="effect1_innerShadow_79_99"/>
</filter>
<filter id="filter1_i_79_99" x="16.9995" y="7" width="213" height="203.145" filterUnits="userSpaceOnUse" color-interpolation-filters="sRGB">
<feFlood flood-opacity="0" result="BackgroundImageFix"/>
<feBlend mode="normal" in="SourceGraphic" in2="BackgroundImageFix" result="shape"/>
<feColorMatrix in="SourceAlpha" type="matrix" values="0 0 0 0 0 0 0 0 0 0 0 0 0 0 0 0 0 0 127 0" result="hardAlpha"/>
<feOffset dy="-6"/>
<feGaussianBlur stdDeviation="5.1"/>
<feComposite in2="hardAlpha" operator="arithmetic" k2="-1" k3="1"/>
<feColorMatrix type="matrix" values="0 0 0 0 0 0 0 0 0 0 0 0 0 0 0 0 0 0 0.25 0"/>
<feBlend mode="normal" in2="shape" result="effect1_innerShadow_79_99"/>
</filter>
<filter id="filter2_di_79_99" x="0" y="0" width="246.7" height="233" filterUnits="userSpaceOnUse" color-interpolation-filters="sRGB">
<feFlood flood-opacity="0" result="BackgroundImageFix"/>
<feColorMatrix in="SourceAlpha" type="matrix" values="0 0 0 0 0 0 0 0 0 0 0 0 0 0 0 0 0 0 127 0" result="hardAlpha"/>
<feOffset dy="4"/>
<feGaussianBlur stdDeviation="2"/>
<feComposite in2="hardAlpha" operator="out"/>
<feColorMatrix type="matrix" values="0 0 0 0 0 0 0 0 0 0 0 0 0 0 0 0 0 0 0.25 0"/>
<feBlend mode="normal" in2="BackgroundImageFix" result="effect1_dropShadow_79_99"/>
<feBlend mode="normal" in="SourceGraphic" in2="effect1_dropShadow_79_99" result="shape"/>
<feColorMatrix in="SourceAlpha" type="matrix" values="0 0 0 0 0 0 0 0 0 0 0 0 0 0 0 0 0 0 127 0" result="hardAlpha"/>
<feOffset dy="4"/>
<feGaussianBlur stdDeviation="2"/>
<feComposite in2="hardAlpha" operator="arithmetic" k2="-1" k3="1"/>
<feColorMatrix type="matrix" values="0 0 0 0 0.960784 0 0 0 0 0.466667 0 0 0 0 0.0627451 0 0 0 1 0"/>
<feBlend mode="normal" in2="shape" result="effect2_innerShadow_79_99"/>
</filter>
<filter id="filter3_d_79_99" x="78.5" y="81.5" width="23" height="48" filterUnits="userSpaceOnUse" color-interpolation-filters="sRGB">
<feFlood flood-opacity="0" result="BackgroundImageFix"/>
<feColorMatrix in="SourceAlpha" type="matrix" values="0 0 0 0 0 0 0 0 0 0 0 0 0 0 0 0 0 0 127 0" result="hardAlpha"/>
<feOffset dy="4"/>
<feGaussianBlur stdDeviation="2.75"/>
<feComposite in2="hardAlpha" operator="out"/>
<feColorMatrix type="matrix" values="0 0 0 0 0 0 0 0 0 0 0 0 0 0 0 0 0 0 0.25 0"/>
<feBlend mode="normal" in2="BackgroundImageFix" result="effect1_dropShadow_79_99"/>
<feBlend mode="normal" in="SourceGraphic" in2="effect1_dropShadow_79_99" result="shape"/>
</filter>
<filter id="filter4_d_79_99" x="145.5" y="81.5" width="23" height="48" filterUnits="userSpaceOnUse" color-interpolation-filters="sRGB">
<feFlood flood-opacity="0" result="BackgroundImageFix"/>
<feColorMatrix in="SourceAlpha" type="matrix" values="0 0 0 0 0 0 0 0 0 0 0 0 0 0 0 0 0 0 127 0" result="hardAlpha"/>
<feOffset dy="4"/>
<feGaussianBlur stdDeviation="2.75"/>
<feComposite in2="hardAlpha" operator="out"/>
<feColorMatrix type="matrix" values="0 0 0 0 0 0 0 0 0 0 0 0 0 0 0 0 0 0 0.25 0"/>
<feBlend mode="normal" in2="BackgroundImageFix" result="effect1_dropShadow_79_99"/>
<feBlend mode="normal" in="SourceGraphic" in2="effect1_dropShadow_79_99" result="shape"/>
</filter>
<filter id="filter5_d_79_99" x="96.999" y="111.999" width="54.502" height="23.5469" filterUnits="userSpaceOnUse" color-interpolation-filters="sRGB">
<feFlood flood-opacity="0" result="BackgroundImageFix"/>
<feColorMatrix in="SourceAlpha" type="matrix" values="0 0 0 0 0 0 0 0 0 0 0 0 0 0 0 0 0 0 127 0" result="hardAlpha"/>
<feOffset dy="4"/>
<feGaussianBlur stdDeviation="2.75"/>
<feComposite in2="hardAlpha" operator="out"/>
<feColorMatrix type="matrix" values="0 0 0 0 0 0 0 0 0 0 0 0 0 0 0 0 0 0 0.25 0"/>
<feBlend mode="normal" in2="BackgroundImageFix" result="effect1_dropShadow_79_99"/>
<feBlend mode="normal" in="SourceGraphic" in2="effect1_dropShadow_79_99" result="shape"/>
</filter>
<linearGradient id="paint0_linear_79_99" x1="123.5" y1="13" x2="123.5" y2="209.977" gradientUnits="userSpaceOnUse">
<stop stop-color="#FFC768"/>
<stop offset="1" stop-color="#EAA52A"/>
</linearGradient>
<linearGradient id="paint1_linear_79_99" x1="123.35" y1="-0.00146485" x2="123.35" y2="224.458" gradientUnits="userSpaceOnUse">
<stop stop-color="#EB6810"/>
<stop offset="0.483162" stop-color="#D4661E"/>
<stop offset="1" stop-color="#B15012"/>
</linearGradient>
<linearGradient id="paint2_linear_79_99" x1="90" y1="82.9998" x2="90" y2="119.911" gradientUnits="userSpaceOnUse">
<stop stop-color="#EB6810"/>
<stop offset="0.483162" stop-color="#D4661E"/>
<stop offset="1" stop-color="#B15012"/>
</linearGradient>
<linearGradient id="paint3_linear_79_99" x1="157" y1="82.9998" x2="157" y2="119.911" gradientUnits="userSpaceOnUse">
<stop stop-color="#EB6810"/>
<stop offset="0.483162" stop-color="#D4661E"/>
<stop offset="1" stop-color="#B15012"/>
</linearGradient>
<linearGradient id="paint4_linear_79_99" x1="124.25" y1="103.523" x2="124.25" y2="136.023" gradientUnits="userSpaceOnUse">
<stop stop-color="#DC6711"/>
<stop offset="1" stop-color="#9F4A13"/>
</linearGradient>
</defs>
</svg>
