<svg xmlns="http://www.w3.org/2000/svg" width="247" height="233" fill="none" viewBox="0 0 247 233"><g filter="url(#filter0_i_79_83)"><g filter="url(#filter1_i_79_83)"><path fill="url(#paint0_linear_79_83)" d="M126.001 12.9995C164.66 12.9995 196.001 40.6239 196.001 70.9995C196.001 71.5282 195.99 72.0543 195.971 72.5776C216.773 82.14 230.001 99.7981 230.001 120C230.001 149.819 202.624 172.649 163.217 173.475C158.42 180.347 152.072 186.125 144.657 190.344C146.108 197.7 149.486 204.887 150.694 209.546C142.909 211.752 141.345 207.559 129.82 201.818C128.238 200.237 126.772 198.682 125.484 197.165C122.241 197.712 118.906 198 115.501 198C91.6093 198 71.122 183.935 62.439 163.917C33.1473 158.927 17.0005 137.549 17.0005 111.02C17.0005 84.739 31.3496 64.6354 59.7202 59.6929C64.358 33.2586 90.9342 12.9995 126.001 12.9995Z"/></g><g filter="url(#filter2_i_79_83)"><path fill="url(#paint1_linear_79_83)" d="M161.501 106.5C161.501 124.725 149.092 133 127.001 133C104.91 133 86.001 123.225 86.001 105C86.001 86.7741 104.41 68.4995 126.501 68.4995C148.592 68.4995 163.001 84.4995 161.501 106.5Z"/></g><g filter="url(#filter3_di_79_83)"><path fill="url(#paint2_linear_79_83)" d="M113.281 0.770996C121.848 -0.300206 127.018 -0.212449 135.454 0.763184C143.095 1.64696 147.578 2.65641 154.856 5.07373C160.751 7.03163 164.363 8.41329 170.07 11.6099C172.843 13.1635 176.001 15.3726 178.321 17.0688C179.513 17.9404 180.547 18.7236 181.285 19.2896C181.654 19.573 181.952 19.8037 182.159 19.9653C182.262 20.046 182.343 20.1102 182.4 20.1548C182.415 20.1669 182.429 20.1777 182.441 20.187C182.451 20.1944 182.462 20.2026 182.473 20.2114C182.534 20.2578 182.621 20.3232 182.729 20.4067C182.946 20.5739 183.253 20.8136 183.63 21.1118C184.384 21.7069 185.426 22.5459 186.589 23.5288C188.827 25.42 191.843 28.1182 194.024 30.7319C197.778 35.23 199.453 38.3341 201.867 43.0005C204.686 48.4506 206.393 52.0894 207.955 58.5796C208.577 61.1653 208.981 64.2965 209.232 66.6528C211.435 67.513 214.431 68.7862 216.818 70.2554C220.334 72.4197 222.225 74.0643 224.941 76.6138C230.498 81.8313 233.45 85.7052 236.903 92.5728C239.6 97.9367 241.162 101.723 242.081 108.24C242.757 113.039 242.756 115.919 242.647 120.388C242.522 125.505 242.621 129.523 240.881 135.633C239.112 141.848 236.978 145.242 234.106 149.894C230.837 155.191 228.5 158.17 224.152 162.613C216.839 170.086 211.436 173.718 202.103 178.063C191.317 183.084 184.082 184.505 172.574 185.205C167.592 185.507 161.553 184.998 156.976 184.469C156.993 184.6 157.008 184.718 157.022 184.82C157.037 184.933 157.05 185.026 157.059 185.093C157.243 186.106 157.39 186.911 157.537 187.715C157.67 188.451 157.804 189.187 157.966 190.082C158.207 190.883 158.406 191.544 158.604 192.206L159.354 194.706C159.637 195.65 160.129 197.248 160.557 198.632C160.77 199.32 160.964 199.947 161.105 200.402C161.175 200.629 161.232 200.814 161.272 200.941C161.276 200.952 161.279 200.964 161.282 200.974C161.647 201.977 161.938 202.776 162.228 203.575C162.491 204.299 162.755 205.024 163.074 205.901C163.764 206.825 164.326 208.445 165.074 210.703C165.298 211.288 165.519 211.882 165.702 212.378C165.856 212.797 165.99 213.165 166.085 213.429C166.133 213.561 166.171 213.668 166.198 213.742C166.211 213.779 166.222 213.808 166.229 213.829C166.233 213.839 166.236 213.847 166.238 213.852C166.239 213.855 166.239 213.857 166.24 213.859L166.241 213.861V213.862L168.192 219.321C168.445 219.933 168.714 220.562 169.001 221.209C169 226.008 158.441 224.974 155.501 224.755C154.401 224.755 151.906 224.435 149.289 223.753C149.171 223.739 149.096 223.728 149.085 223.726C148.981 223.71 148.887 223.694 148.833 223.684C148.716 223.664 148.559 223.634 148.375 223.6C145.975 223.156 144.237 222.782 141.571 221.725C140.226 221.192 138.692 220.492 137.57 219.965C136.993 219.694 136.491 219.453 136.133 219.279C135.954 219.192 135.809 219.122 135.708 219.072C135.657 219.047 135.617 219.027 135.589 219.013L135.542 218.99H135.542L138.65 212.717L135.541 218.989L135.455 218.946L138.65 212.717L135.454 218.946V218.945H135.453C135.452 218.944 135.451 218.943 135.45 218.943C135.448 218.942 135.444 218.941 135.441 218.939C135.434 218.935 135.423 218.93 135.411 218.923C135.386 218.91 135.35 218.892 135.305 218.869C135.215 218.822 135.087 218.756 134.93 218.673C134.616 218.509 134.18 218.279 133.688 218.014C132.749 217.508 131.444 216.788 130.415 216.138C129.229 215.391 128.005 214.464 127.173 213.812C126.736 213.469 126.361 213.166 126.093 212.947C125.959 212.837 125.85 212.747 125.772 212.682C125.733 212.65 125.702 212.623 125.679 212.604C125.668 212.595 125.659 212.586 125.652 212.581C125.648 212.578 125.645 212.576 125.642 212.574L125.637 212.569L125.41 212.377L125.206 212.173C125.207 212.174 125.208 212.175 125.209 212.175C125.208 212.175 125.206 212.174 125.204 212.171C125.196 212.164 125.181 212.148 125.159 212.126C125.113 212.082 125.039 212.01 124.943 211.92C124.747 211.736 124.479 211.493 124.19 211.249C123.989 211.079 123.808 210.936 123.657 210.823C123.637 210.822 123.616 210.821 123.592 210.82C123.487 210.814 123.309 210.805 123.131 210.794C122.743 210.77 122.247 210.731 121.66 210.647C121.79 210.666 121.657 210.643 121.103 210.634C120.64 210.627 120.087 210.631 119.529 210.642C118.978 210.653 118.46 210.671 118.078 210.685C117.888 210.692 117.734 210.698 117.629 210.703C117.578 210.705 117.538 210.706 117.512 210.708C117.51 210.708 117.507 210.707 117.505 210.708L117.503 210.709C117.502 210.709 117.5 210.708 117.499 210.709C117.493 210.709 117.488 210.709 117.485 210.709C117.482 210.71 117.48 210.709 117.479 210.709L117.478 210.709C117.468 210.709 117.455 210.711 117.44 210.711C117.399 210.713 117.341 210.716 117.269 210.719C117.124 210.726 116.917 210.736 116.662 210.746C116.152 210.766 115.441 210.789 114.631 210.805C113.078 210.836 110.91 210.843 109.082 210.694C106.976 210.523 104.521 210.08 102.767 209.729C101.853 209.546 101.053 209.372 100.48 209.245C100.193 209.181 99.9608 209.128 99.7974 209.09C99.7383 209.077 99.6876 209.065 99.647 209.055C99.6177 209.049 99.5841 209.043 99.5474 209.036C99.3917 209.004 99.1701 208.959 98.897 208.902C98.3517 208.788 97.5918 208.625 96.729 208.427C95.0681 208.047 92.7823 207.483 90.9058 206.848C87.2718 205.618 85.1457 204.665 81.8316 202.881C78.5975 201.141 76.7871 199.913 73.9907 197.848C71.7194 196.171 69.4757 194.77 66.6431 192.04C63.9514 189.445 62.4922 187.584 60.4927 184.841C59.2926 183.195 58.5074 181.802 57.8423 180.532C57.1512 179.211 56.7798 178.416 56.0884 177.219C55.5062 176.212 54.9111 175.059 54.3999 174.03C53.5698 173.875 52.6859 173.696 51.9175 173.5C50.5326 173.146 49.5621 172.967 48.1235 172.652C46.7338 172.348 45.2107 171.975 43.3521 171.33C41.2745 170.608 38.9855 169.478 37.4106 168.656C36.5802 168.222 35.8594 167.827 35.3442 167.54C35.0858 167.395 34.8758 167.277 34.728 167.193C34.6542 167.151 34.5954 167.117 34.5532 167.092C34.5322 167.08 34.5151 167.07 34.5024 167.063C34.4962 167.059 34.4909 167.056 34.4868 167.053C34.485 167.052 34.4833 167.051 34.4819 167.05L34.479 167.049V167.048L38.0015 161L34.478 167.048L34.3521 166.975L34.23 166.897L38.0015 161L34.229 166.897V166.896L34.2231 166.893C34.2202 166.891 34.2162 166.888 34.2114 166.885C34.2011 166.879 34.1866 166.869 34.1685 166.857C34.1319 166.833 34.0793 166.8 34.0132 166.757C33.8809 166.672 33.6917 166.549 33.4585 166.397C32.9923 166.092 32.343 165.664 31.6099 165.168C30.1873 164.208 28.2833 162.885 26.7856 161.691C23.4377 159.022 21.7434 157.037 19.3716 154.316C17.0568 151.66 15.8111 149.993 13.8794 147.18C12.2807 144.852 10.9175 143.023 9.34326 139.757C8.28595 137.564 7.40834 134.871 6.84033 132.974C6.54125 131.975 6.29771 131.093 6.12842 130.459C6.04351 130.14 5.976 129.881 5.9292 129.698C5.90586 129.606 5.8876 129.533 5.87451 129.481C5.86797 129.455 5.86277 129.433 5.85889 129.417C5.85699 129.41 5.85524 129.403 5.854 129.398C5.85344 129.396 5.85246 129.394 5.85205 129.392V129.388L12.6489 127.717L5.85107 129.387L5.81006 129.217L5.77686 129.045L12.6489 127.717L5.77588 129.044V129.042C5.77561 129.041 5.77531 129.039 5.7749 129.037C5.77402 129.032 5.77244 129.026 5.771 129.018C5.76809 129.003 5.76438 128.981 5.75928 128.955C5.74901 128.901 5.73463 128.824 5.71631 128.726C5.67958 128.53 5.62674 128.25 5.56397 127.903C5.43865 127.21 5.26925 126.241 5.09033 125.136C4.74247 122.987 4.32214 120.089 4.16455 117.672C3.91099 113.784 3.98635 111.503 4.15674 107.887C4.33532 104.097 4.37001 101.285 5.29346 96.8042C6.18607 92.4727 7.04543 89.9322 8.69678 86.0044C10.3406 82.0945 11.5859 79.8922 13.7222 76.4927C14.8625 74.678 16.3956 72.5978 17.5522 71.0767C18.1482 70.2929 18.6797 69.6111 19.063 69.1245C19.255 68.8808 19.4106 68.6845 19.52 68.5474C19.5747 68.4788 19.6186 68.425 19.6489 68.3872C19.6638 68.3687 19.6756 68.3539 19.6841 68.3433C19.6883 68.338 19.6922 68.3328 19.6948 68.3296C19.696 68.3282 19.697 68.3267 19.6978 68.3257L19.6997 68.3237L19.7554 68.2544L19.813 68.187L19.8159 68.1841L19.8355 68.1607C19.8473 68.1468 19.8631 68.1276 19.8833 68.104C19.924 68.0565 19.9817 67.9896 20.0542 67.9058C20.1991 67.7382 20.4059 67.5009 20.6626 67.2105C21.1748 66.631 21.8954 65.8294 22.7358 64.9351C24.3444 63.2233 26.6602 60.8811 28.8755 59.1733C33.2829 55.7758 36.3725 54.3666 40.7144 52.3618C43.1364 51.2435 46.1733 50.1475 48.4468 49.3726C48.598 49.321 48.7478 49.2715 48.894 49.2222C48.923 49.1238 48.951 49.0239 48.981 48.9233C49.6388 46.7181 50.6455 43.6335 51.8569 41.1489C53.9107 36.9369 55.6348 34.6743 58.0884 31.4653C61.647 26.811 64.1017 24.1783 68.645 20.3589C70.4947 18.8039 72.8726 17.1353 74.646 15.937C75.5614 15.3185 76.3728 14.7862 76.9566 14.4087C77.249 14.2196 77.4866 14.0682 77.6528 13.9624C77.7359 13.9095 77.802 13.8675 77.8482 13.8384C77.8709 13.824 77.8889 13.8124 77.9019 13.8042C77.9036 13.8031 77.9052 13.8013 77.9067 13.8003C77.9138 13.7957 77.9222 13.7918 77.9302 13.7866C77.9877 13.7495 78.0698 13.6963 78.1743 13.6294C78.3838 13.4953 78.6843 13.3043 79.0571 13.0698C79.8015 12.6018 80.8442 11.9555 82.0435 11.2397C84.3732 9.84938 87.5493 8.04171 90.315 6.8169C98.8789 3.0243 104.429 1.87776 113.281 0.770996ZM133.845 14.6704C126.376 13.8066 122.338 13.7474 115.018 14.6626C107.046 15.6594 102.923 16.5448 95.9839 19.6177C94.0328 20.4818 91.4582 21.9239 89.2173 23.2612C88.1316 23.9092 87.1841 24.4971 86.5093 24.9214C86.1726 25.1331 85.905 25.3032 85.7251 25.4185C85.6354 25.4759 85.567 25.5199 85.523 25.5483C85.5012 25.5624 85.4848 25.5724 85.4751 25.5786C85.4704 25.5817 85.467 25.5844 85.4653 25.5855L85.4194 25.6157L85.3648 25.6499C85.3573 25.6546 85.345 25.662 85.3286 25.6724C85.2943 25.6941 85.2406 25.7283 85.1704 25.773C85.0298 25.8624 84.8213 25.9956 84.5601 26.1646C84.0361 26.5034 83.3055 26.9822 82.4849 27.5366C80.786 28.6846 78.914 30.0163 77.6538 31.0757C73.9511 34.1885 72.1951 36.0656 69.2105 39.9692C66.8613 43.0418 65.8527 44.3894 64.4409 47.2847C63.758 48.6852 63.0155 50.8519 62.397 52.9253C62.1033 53.9098 61.8628 54.786 61.6968 55.4136C61.6142 55.7259 61.5501 55.9736 61.5083 56.1392C61.4875 56.2217 61.472 56.2838 61.4624 56.3228C61.4576 56.3421 61.4545 56.3561 61.4526 56.3638C61.4523 56.3654 61.451 56.3666 61.4507 56.3677L61.4517 56.3687L60.5093 60.2515L56.687 61.4146H56.686L56.6274 61.4321C56.5829 61.4458 56.5144 61.4676 56.4243 61.4956C56.2433 61.5518 55.975 61.6357 55.6392 61.7427C54.9658 61.9572 54.025 62.2627 52.9634 62.6245C50.7746 63.3705 48.3111 64.2751 46.5835 65.0728C42.3505 67.0272 40.4963 67.8923 37.4233 70.2612C36.1395 71.2509 34.4545 72.9083 32.938 74.522C32.2161 75.2901 31.5928 75.983 31.1519 76.4819C30.9322 76.7305 30.7599 76.9292 30.645 77.062C30.6021 77.1117 30.5666 77.1518 30.5405 77.1821C30.52 77.2078 30.4949 77.2405 30.4644 77.2788C30.3711 77.3957 30.2326 77.5696 30.0601 77.7886C29.7142 78.2276 29.233 78.8449 28.6958 79.5513C27.5857 81.0112 26.3678 82.6815 25.5757 83.9419C23.7153 86.9024 22.8695 88.4155 21.6021 91.4302C20.2378 94.6752 19.6832 96.3411 19.0054 99.6304C18.3447 102.837 18.332 104.496 18.1411 108.546C17.9807 111.952 17.9304 113.635 18.1343 116.761C18.2463 118.478 18.5759 120.831 18.9106 122.899C19.0729 123.902 19.2275 124.783 19.3413 125.413C19.3981 125.727 19.4445 125.977 19.4761 126.145C19.4804 126.168 19.484 126.19 19.4878 126.21C19.4899 126.219 19.4924 126.227 19.4946 126.236C19.5302 126.375 19.5842 126.585 19.6548 126.849C19.7966 127.381 20.0017 128.123 20.2515 128.958C20.7812 130.726 21.4032 132.533 21.9546 133.677C22.9689 135.781 23.6435 136.669 25.4194 139.254C27.1134 141.721 28.0335 142.946 29.9263 145.118C32.2715 147.809 33.2473 148.937 35.5132 150.744C36.5563 151.575 38.0781 152.643 39.4458 153.567C40.1078 154.014 40.6962 154.402 41.1177 154.677C41.3278 154.815 41.4957 154.923 41.6089 154.997C41.6234 155.006 41.6372 155.015 41.6499 155.023C41.6574 155.027 41.6653 155.032 41.6733 155.037C41.7845 155.1 41.9531 155.196 42.1665 155.315C42.5953 155.554 43.199 155.884 43.8882 156.244C45.3532 157.008 46.8879 157.737 47.9458 158.105C49.0894 158.502 50.0273 158.737 51.1167 158.975C52.1574 159.203 53.6867 159.502 55.3814 159.935C56.0546 160.107 57.1735 160.316 58.2847 160.501C58.8062 160.587 59.2732 160.659 59.6089 160.709C59.7758 160.735 59.9092 160.754 59.9985 160.767C60.0429 160.774 60.0768 160.779 60.0982 160.782C60.1083 160.783 60.1162 160.784 60.1206 160.785C60.1225 160.785 60.1247 160.785 60.1255 160.786H60.1245L63.9487 161.323L65.5327 164.845V164.844C65.533 164.845 65.5337 164.847 65.5347 164.849C65.5368 164.854 65.5405 164.862 65.5454 164.873C65.5555 164.895 65.572 164.93 65.5933 164.977C65.6359 165.071 65.6993 165.211 65.7808 165.387C65.9444 165.741 66.1773 166.238 66.4487 166.802C67.0109 167.971 67.6686 169.278 68.2105 170.215C69.0939 171.744 69.7944 173.177 70.2456 174.039C70.7229 174.95 71.1505 175.695 71.8052 176.593C73.551 178.988 74.4735 180.142 76.3589 181.959C78.3143 183.844 79.2289 184.313 82.3071 186.586C84.7392 188.382 85.9785 189.214 88.4673 190.553C91.1582 192.002 92.5671 192.63 95.3931 193.586C96.5666 193.984 98.2807 194.42 99.8569 194.781C100.612 194.954 101.281 195.098 101.759 195.198C101.997 195.248 102.187 195.286 102.314 195.312C102.377 195.325 102.425 195.334 102.456 195.34C102.47 195.343 102.482 195.345 102.488 195.346C102.491 195.347 102.493 195.347 102.494 195.347H102.493L102.634 195.375L102.773 195.408C102.774 195.408 102.775 195.409 102.778 195.41C102.784 195.411 102.796 195.414 102.811 195.418C102.842 195.425 102.892 195.436 102.957 195.451C103.087 195.481 103.283 195.526 103.53 195.582C104.026 195.692 104.721 195.843 105.511 196.001C107.167 196.332 108.963 196.639 110.217 196.741C111.307 196.829 112.89 196.836 114.356 196.807C115.056 196.793 115.674 196.774 116.115 196.756C116.334 196.748 116.508 196.739 116.625 196.734C116.682 196.731 116.726 196.729 116.753 196.728C116.767 196.727 116.777 196.727 116.783 196.727C116.785 196.727 116.787 196.726 116.788 196.726H116.803L116.819 196.725L117.144 203.624L116.82 196.725H116.826C116.829 196.725 116.833 196.724 116.837 196.724C116.848 196.724 116.863 196.723 116.88 196.722C116.916 196.721 116.967 196.718 117.03 196.715C117.157 196.71 117.337 196.703 117.555 196.695C117.991 196.679 118.592 196.658 119.245 196.645C120.289 196.624 122.279 196.593 123.639 196.788C123.735 196.801 123.832 196.811 123.993 196.821C124.09 196.827 124.176 196.831 124.331 196.839C124.468 196.847 124.658 196.856 124.864 196.872C125.85 196.944 126.968 197.112 128.363 197.577C129.665 198.011 130.74 198.696 131.36 199.12C132.071 199.606 132.723 200.129 133.234 200.561C133.757 201.003 134.209 201.417 134.528 201.717C134.641 201.824 134.739 201.919 134.822 201.999C134.862 202.032 134.909 202.07 134.962 202.114C135.17 202.284 135.466 202.523 135.808 202.792C136.537 203.363 137.314 203.937 137.884 204.296C138.481 204.673 139.426 205.202 140.331 205.69C140.76 205.921 141.144 206.124 141.419 206.268C141.557 206.34 141.667 206.397 141.741 206.435C141.756 206.443 141.77 206.45 141.782 206.457L141.877 206.504C141.961 206.546 142.087 206.606 142.245 206.683C142.562 206.837 143.01 207.052 143.523 207.293C144.582 207.791 145.799 208.341 146.728 208.709C147.787 209.129 148.47 209.336 149.505 209.556C149.355 209.142 149.213 208.751 149.071 208.36L148.071 205.61L148.014 205.454L147.965 205.296L154.649 203.217L147.965 205.295H147.964C147.964 205.295 147.965 205.293 147.964 205.293C147.964 205.29 147.962 205.287 147.96 205.283C147.958 205.274 147.954 205.261 147.949 205.244C147.938 205.21 147.923 205.159 147.903 205.095C147.863 204.966 147.805 204.78 147.734 204.55C147.592 204.092 147.395 203.46 147.181 202.766C146.756 201.389 146.247 199.737 145.945 198.729L144.445 193.729L144.333 193.354L144.262 192.969L143.262 187.469L143.239 187.343L143.221 187.215L143.22 187.214V187.21C143.22 187.208 143.22 187.205 143.219 187.202C143.218 187.194 143.216 187.185 143.214 187.172C143.211 187.148 143.206 187.113 143.2 187.07C143.187 186.983 143.171 186.858 143.15 186.706C143.108 186.4 143.052 185.974 142.992 185.488C142.902 184.761 142.793 183.807 142.717 182.894C142.01 182.821 141.308 182.739 140.657 182.646C135.259 181.873 129.027 179.757 124.463 178.014C122.112 177.116 120.065 176.262 118.604 175.632C117.873 175.317 117.284 175.056 116.873 174.872C116.71 174.799 116.575 174.737 116.47 174.689C116.398 174.662 116.316 174.632 116.225 174.597C115.886 174.467 115.416 174.282 114.834 174.038C113.672 173.549 112.054 172.824 110.136 171.84C106.319 169.883 101.216 166.854 96.1353 162.568C90.9982 158.234 86.7606 153.149 83.8579 149.259C82.3905 147.293 81.2268 145.581 80.4224 144.348C80.0195 143.731 79.7052 143.23 79.4858 142.876C79.4435 142.807 79.4049 142.744 79.3696 142.686C79.3442 142.652 79.3166 142.618 79.2896 142.582C79.045 142.252 78.7348 141.81 78.3814 141.256C77.6741 140.148 76.7925 138.587 75.9155 136.566C74.1554 132.51 72.4382 126.656 72.1538 118.976C71.8828 111.657 72.559 105.536 73.3159 101.201C73.6949 99.0304 74.096 97.2987 74.4126 96.0776C74.571 95.4668 74.7084 94.9827 74.812 94.6343C74.8638 94.4602 74.9067 94.3198 74.9399 94.2144C74.9434 94.2034 74.9465 94.1924 74.9497 94.1821C74.9545 94.1655 74.9599 94.1479 74.9653 94.1294C75.0016 94.0053 75.0512 93.8394 75.1148 93.6362C75.2418 93.2303 75.4258 92.6718 75.6724 91.9868C76.1647 90.6192 76.9138 88.7328 77.9732 86.5435C80.0769 82.1958 83.4894 76.4775 88.6997 71.2671C93.983 65.9839 100.514 62.2048 105.462 59.7974C107.982 58.5718 110.196 57.6514 111.794 57.0327C112.595 56.7228 113.247 56.4866 113.71 56.3237C113.942 56.2423 114.128 56.1784 114.262 56.1333C114.329 56.1108 114.384 56.093 114.425 56.0796C114.445 56.073 114.463 56.0674 114.476 56.063C114.483 56.0608 114.49 56.0588 114.495 56.0571C114.497 56.0564 114.499 56.0558 114.501 56.0552L114.504 56.0542C114.508 56.061 114.578 56.2756 116.619 62.6245L114.507 56.0532L115.011 55.8911L115.535 55.8062L116.649 62.7173C115.553 55.9209 115.537 55.8083 115.539 55.8062C115.539 55.806 115.541 55.8054 115.542 55.8052C115.545 55.8048 115.548 55.8047 115.551 55.8042C115.558 55.8032 115.565 55.8016 115.573 55.8003C115.589 55.7977 115.61 55.7942 115.634 55.7905C115.683 55.7831 115.746 55.7734 115.824 55.7622C115.979 55.7397 116.193 55.711 116.459 55.6773C116.992 55.6099 117.738 55.5249 118.661 55.4458C120.5 55.2881 123.072 55.1497 126.062 55.2192C131.916 55.3554 139.965 56.2994 147.28 59.9566C153.712 63.1726 158.34 66.353 161.893 70.064C165.478 73.8084 167.613 77.7293 169.493 81.7573C173.687 90.7462 174.199 97.6155 173.111 107.95C172.495 113.8 170.745 118.106 168.518 121.532C166.567 124.533 163.842 127.249 162.964 128.273C160.333 131.343 156.41 133.363 153.076 134.595C149.605 135.878 145.651 136.717 142.149 136.717C137.89 136.717 132.942 134.942 128.869 131.866C124.649 128.679 120.854 123.706 119.751 116.91C119.685 116.866 119.65 116.804 119.65 116.717C118.65 112.217 122.284 107.217 126.15 107.217C130.016 107.218 132.65 111.217 133.65 114.717C133.65 114.771 133.635 114.823 133.61 114.876C134.077 117.403 135.481 119.316 137.305 120.694C139.356 122.242 141.408 122.717 142.149 122.717C143.647 122.717 145.944 122.306 148.223 121.463C150.638 120.571 151.966 119.592 152.334 119.162C154.457 116.686 155.481 115.901 156.78 113.902C157.803 112.328 158.804 110.134 159.188 106.484C160.1 97.8188 159.611 93.688 156.806 87.6773C155.186 84.2055 153.82 81.876 151.781 79.7456C149.709 77.5818 146.587 75.2618 141.019 72.478C136.334 70.1354 130.633 69.3292 125.737 69.2153C123.352 69.1599 121.298 69.2715 119.856 69.395C119.176 69.4534 118.638 69.5139 118.276 69.5591C117.94 69.6779 117.454 69.8548 116.848 70.0894C115.54 70.5957 113.692 71.363 111.586 72.3872C107.285 74.4797 102.316 77.4501 98.5991 81.1665C94.8096 84.956 92.2219 89.2389 90.5757 92.6411C89.7601 94.3267 89.1966 95.753 88.8452 96.729C88.6701 97.2156 88.5483 97.5862 88.4761 97.8169C88.44 97.9321 88.4169 98.0128 88.4048 98.0542L88.4019 98.063L88.4009 98.062L88.3511 98.2466L88.2905 98.4263L88.2915 98.4273L88.2905 98.4292C88.2801 98.4623 88.2601 98.5286 88.231 98.6265C88.1725 98.823 88.0794 99.1476 87.9644 99.5913C87.7341 100.48 87.4155 101.842 87.1069 103.609C86.4889 107.149 85.9152 112.278 86.1441 118.459C86.3597 124.278 87.6436 128.424 88.7583 130.993C89.3188 132.284 89.8435 133.193 90.1831 133.725C90.3528 133.991 90.4765 134.163 90.5347 134.242C90.5443 134.255 90.5522 134.265 90.5581 134.273L90.8784 134.651L91.1792 135.163V135.162L91.1812 135.166C91.1874 135.176 91.1995 135.197 91.2173 135.226C91.2532 135.286 91.3125 135.383 91.3941 135.515C91.5577 135.78 91.8116 136.183 92.147 136.697C92.8192 137.727 93.815 139.193 95.0786 140.886C97.6387 144.317 101.151 148.483 105.163 151.867C109.23 155.298 113.379 157.769 116.524 159.382C118.088 160.184 119.38 160.762 120.256 161.13C120.694 161.314 121.025 161.445 121.234 161.525C121.337 161.565 121.411 161.591 121.451 161.606C121.456 161.608 121.462 161.61 121.466 161.612H121.467L121.788 161.725L122.094 161.867L122.096 161.868C122.099 161.869 122.106 161.872 122.116 161.876C122.135 161.885 122.167 161.901 122.21 161.92C122.297 161.96 122.432 162.021 122.608 162.1C122.962 162.259 123.486 162.491 124.147 162.776C125.472 163.347 127.331 164.124 129.459 164.936C133.853 166.615 138.872 168.248 142.642 168.788C143.92 168.971 145.703 169.121 147.283 169.227C148.047 169.278 148.722 169.317 149.204 169.342C149.444 169.355 149.636 169.364 149.765 169.371C149.829 169.374 149.878 169.376 149.91 169.377C149.925 169.378 149.937 169.379 149.944 169.379C149.947 169.38 149.949 169.379 149.951 169.379L150.402 169.399L150.847 169.476H150.849C150.853 169.477 150.861 169.478 150.871 169.48C150.891 169.484 150.925 169.489 150.97 169.497C151.061 169.512 151.2 169.536 151.383 169.566C151.75 169.626 152.292 169.712 152.972 169.815C154.335 170.021 156.243 170.29 158.411 170.543C162.862 171.062 167.975 171.458 171.725 171.23C181.867 170.614 187.317 169.504 196.195 165.371C204.148 161.668 208.123 158.976 214.146 152.821C217.775 149.112 219.472 146.949 222.193 142.541C225.009 137.978 226.221 136.001 227.417 131.8C228.582 127.707 228.517 125.535 228.651 120.046C228.752 115.918 228.741 113.903 228.218 110.195C227.585 105.706 226.691 103.428 224.395 98.8618C221.708 93.5183 219.765 90.9585 215.358 86.8208C213.005 84.6114 211.885 83.6583 209.48 82.1782C208.152 81.3611 206.026 80.4229 203.947 79.6177C202.964 79.237 202.085 78.9218 201.456 78.7026C201.142 78.5936 200.893 78.509 200.727 78.4536C200.644 78.426 200.582 78.4057 200.543 78.3931C200.524 78.3868 200.511 78.3828 200.503 78.3804C200.5 78.3792 200.497 78.3786 200.497 78.3784H200.498L195.959 76.9136L195.663 72.1509C195.663 72.1493 195.663 72.1466 195.663 72.1431C195.662 72.1337 195.66 72.1173 195.659 72.0952C195.656 72.0509 195.651 71.9817 195.645 71.8901C195.632 71.7066 195.613 71.4332 195.585 71.0894C195.531 70.3999 195.448 69.4358 195.334 68.3452C195.098 66.0767 194.759 63.5841 194.343 61.855C193.157 56.9231 192.011 54.4175 189.432 49.4331C187.167 45.0551 186.046 43.0227 183.275 39.7026C181.913 38.071 179.679 36.0186 177.552 34.2212C176.533 33.3599 175.614 32.6199 174.953 32.0972C174.623 31.8366 174.359 31.6324 174.181 31.4956C174.093 31.4274 174.026 31.3758 173.983 31.3433C173.962 31.3271 173.947 31.3149 173.938 31.3081C173.935 31.3057 173.932 31.3044 173.93 31.3032L173.867 31.2544L173.804 31.2056L173.803 31.2046C173.801 31.2031 173.798 31.2004 173.793 31.1968C173.784 31.189 173.768 31.1759 173.746 31.1587C173.701 31.124 173.633 31.0704 173.543 31.0005C173.364 30.8604 173.098 30.6543 172.762 30.397C172.09 29.8808 171.144 29.1645 170.058 28.3706C167.821 26.7353 165.227 24.9446 163.228 23.8247C158.556 21.2077 155.838 20.1517 150.443 18.3599C144.054 16.2378 140.51 15.4412 133.845 14.6704ZM121.485 161.619L121.483 161.618C121.482 161.617 121.479 161.617 121.477 161.616C121.476 161.615 121.475 161.614 121.473 161.614L121.47 161.613H121.469C121.477 161.616 121.483 161.618 121.485 161.619ZM90.5317 134.242C90.5293 134.239 90.5267 134.235 90.5239 134.232C90.5196 134.227 90.5143 134.221 90.5093 134.215L90.4976 134.201H90.4966L90.5317 134.242ZM88.397 98.0806C88.396 98.084 88.3952 98.0859 88.395 98.0864C88.3952 98.0858 88.3955 98.0828 88.397 98.0776C88.3967 98.0786 88.3972 98.0798 88.397 98.0806Z"/></g></g><defs><filter id="filter0_i_79_83" width="238.7" height="248" x="4" y="-23.001" color-interpolation-filters="sRGB" filterUnits="userSpaceOnUse"><feFlood flood-opacity="0" result="BackgroundImageFix"/><feBlend in="SourceGraphic" in2="BackgroundImageFix" mode="normal" result="shape"/><feColorMatrix in="SourceAlpha" result="hardAlpha" type="matrix" values="0 0 0 0 0 0 0 0 0 0 0 0 0 0 0 0 0 0 127 0"/><feOffset dy="-23"/><feGaussianBlur stdDeviation="25.3"/><feComposite in2="hardAlpha" k2="-1" k3="1" operator="arithmetic"/><feColorMatrix type="matrix" values="0 0 0 0 0 0 0 0 0 0 0 0 0 0 0 0 0 0 0.25 0"/><feBlend in2="shape" mode="normal" result="effect1_innerShadow_79_83"/></filter><filter id="filter1_i_79_83" width="213" height="203.145" x="17" y="7" color-interpolation-filters="sRGB" filterUnits="userSpaceOnUse"><feFlood flood-opacity="0" result="BackgroundImageFix"/><feBlend in="SourceGraphic" in2="BackgroundImageFix" mode="normal" result="shape"/><feColorMatrix in="SourceAlpha" result="hardAlpha" type="matrix" values="0 0 0 0 0 0 0 0 0 0 0 0 0 0 0 0 0 0 127 0"/><feOffset dy="-6"/><feGaussianBlur stdDeviation="5.1"/><feComposite in2="hardAlpha" k2="-1" k3="1" operator="arithmetic"/><feColorMatrix type="matrix" values="0 0 0 0 0 0 0 0 0 0 0 0 0 0 0 0 0 0 0.25 0"/><feBlend in2="shape" mode="normal" result="effect1_innerShadow_79_83"/></filter><filter id="filter2_i_79_83" width="76.607" height="67.5" x="85.001" y="68.499" color-interpolation-filters="sRGB" filterUnits="userSpaceOnUse"><feFlood flood-opacity="0" result="BackgroundImageFix"/><feBlend in="SourceGraphic" in2="BackgroundImageFix" mode="normal" result="shape"/><feColorMatrix in="SourceAlpha" result="hardAlpha" type="matrix" values="0 0 0 0 0 0 0 0 0 0 0 0 0 0 0 0 0 0 127 0"/><feOffset dx="-1" dy="3"/><feGaussianBlur stdDeviation="2"/><feComposite in2="hardAlpha" k2="-1" k3="1" operator="arithmetic"/><feColorMatrix type="matrix" values="0 0 0 0 0 0 0 0 0 0 0 0 0 0 0 0 0 0 0.25 0"/><feBlend in2="shape" mode="normal" result="effect1_innerShadow_79_83"/></filter><filter id="filter3_di_79_83" width="246.7" height="233" x="0" y="-.001" color-interpolation-filters="sRGB" filterUnits="userSpaceOnUse"><feFlood flood-opacity="0" result="BackgroundImageFix"/><feColorMatrix in="SourceAlpha" result="hardAlpha" type="matrix" values="0 0 0 0 0 0 0 0 0 0 0 0 0 0 0 0 0 0 127 0"/><feOffset dy="4"/><feGaussianBlur stdDeviation="2"/><feComposite in2="hardAlpha" operator="out"/><feColorMatrix type="matrix" values="0 0 0 0 0 0 0 0 0 0 0 0 0 0 0 0 0 0 0.25 0"/><feBlend in2="BackgroundImageFix" mode="normal" result="effect1_dropShadow_79_83"/><feBlend in="SourceGraphic" in2="effect1_dropShadow_79_83" mode="normal" result="shape"/><feColorMatrix in="SourceAlpha" result="hardAlpha" type="matrix" values="0 0 0 0 0 0 0 0 0 0 0 0 0 0 0 0 0 0 127 0"/><feOffset dy="4"/><feGaussianBlur stdDeviation="2"/><feComposite in2="hardAlpha" k2="-1" k3="1" operator="arithmetic"/><feColorMatrix type="matrix" values="0 0 0 0 0.960784 0 0 0 0 0.466667 0 0 0 0 0.0627451 0 0 0 1 0"/><feBlend in2="shape" mode="normal" result="effect2_innerShadow_79_83"/></filter><linearGradient id="paint0_linear_79_83" x1="123.501" x2="123.501" y1="12.999" y2="209.977" gradientUnits="userSpaceOnUse"><stop stop-color="#FFC768"/><stop offset="1" stop-color="#EAA52A"/></linearGradient><linearGradient id="paint1_linear_79_83" x1="123.751" x2="123.751" y1="68.499" y2="133" gradientUnits="userSpaceOnUse"><stop stop-color="#F9BE56"/><stop offset="1" stop-color="#F2B342"/></linearGradient><linearGradient id="paint2_linear_79_83" x1="123.351" x2="123.351" y1="-.001" y2="224.458" gradientUnits="userSpaceOnUse"><stop stop-color="#EB6810"/><stop offset=".483" stop-color="#D4661E"/><stop offset="1" stop-color="#B15012"/></linearGradient></defs></svg>